<svg width="21" height="23" viewBox="0 0 21 23" fill="none" xmlns="http://www.w3.org/2000/svg">
<path d="M11.0159 11.8223H1.80505V12.4556H11.0159V11.8223Z" fill="#425871"/>
<path d="M9.22049 8.5H4.87781V9.13332H9.22049V8.5Z" fill="#425871"/>
<path d="M5.39158 8.81566L4.67163 8.0957L3.95168 8.81566L4.67163 9.53561L5.39158 8.81566Z" fill="#425871"/>
<path d="M9.22049 4.54102H4.87781V5.17433H9.22049V4.54102Z" fill="#425871"/>
<path d="M9.22049 15.1387H4.87781V15.772H9.22049V15.1387Z" fill="#425871"/>
<path d="M5.39158 15.4543L4.67163 14.7344L3.95168 15.4543L4.67163 16.1743L5.39158 15.4543Z" fill="#425871"/>
<path d="M9.22049 18.4629H4.87781V19.0962H9.22049V18.4629Z" fill="#425871"/>
<path d="M20.8587 3.74855C20.8472 3.26 20.8303 2.74845 20.8089 2.21508C20.7865 1.68171 20.7532 1.20407 20.7088 0.781563C20.6864 0.581513 20.5918 0.443017 20.4255 0.364879C20.2588 0.28719 20.1087 0.248047 19.9752 0.248047C19.5085 0.248047 18.9361 0.309601 18.2585 0.431364C17.5802 0.553874 16.8193 0.614682 15.9748 0.614682C15.1298 0.614682 14.2355 0.614682 13.2911 0.614682C12.3462 0.614682 11.4742 0.614682 10.6742 0.614682C10.096 0.614682 9.52917 0.603774 8.97384 0.581364C8.41822 0.559551 7.85138 0.537141 7.27364 0.514731C6.69546 0.492769 6.09546 0.481413 5.47335 0.481413C5.22863 0.481413 5.03425 0.520557 4.89008 0.598097C4.74516 0.676234 4.6733 0.792918 4.6733 0.948147C4.6733 1.08156 4.74008 1.2096 4.87334 1.33151C5.00661 1.45402 5.22862 1.5483 5.54013 1.61493C6.34018 1.79302 6.87877 2.08166 7.15696 2.48176C7.43455 2.88171 7.57364 3.50427 7.57364 4.34854V5.17564H9.22051V5.80895H7.57364V9.13361H9.22051V9.76692H7.57364V12.4562H11.0159V13.0895H7.57364V15.7716H9.22051V16.4049H7.57364V19.017C7.57364 19.0444 7.57185 19.0693 7.5714 19.0961H9.22051V19.7294H7.50955C7.435 20.0999 7.29576 20.3854 7.09033 20.5838C6.76792 20.8953 6.1845 21.1396 5.34008 21.3171C4.7843 21.4287 4.50671 21.6505 4.50671 21.9839C4.50671 22.1171 4.58425 22.2229 4.74008 22.3006C4.89516 22.3781 5.07339 22.4173 5.27329 22.4173C5.80666 22.4173 6.33435 22.3949 6.85681 22.3506C7.37882 22.3058 7.89546 22.2729 8.40716 22.2505C8.91812 22.2286 9.41816 22.2172 9.90731 22.2172C10.3294 22.2172 10.7907 22.2287 11.2908 22.2505C11.7908 22.2729 12.3127 22.3006 12.8576 22.3339C13.402 22.3672 13.9297 22.3838 14.4411 22.3838C14.6855 22.3838 14.8688 22.3505 14.9912 22.2839C15.1131 22.2171 15.1745 22.1062 15.1745 21.9505C15.1745 21.7729 15.1079 21.6338 14.9744 21.5337C14.8412 21.4338 14.6296 21.3617 14.3411 21.3169C13.4519 21.117 12.8295 20.8502 12.4743 20.5169C12.1185 20.1836 11.9293 19.6724 11.9075 18.9834C11.8851 17.9167 11.8684 16.8498 11.8575 15.7831C11.846 14.7162 11.8407 13.6719 11.8407 12.6493C11.8407 12.3825 11.9075 12.1883 12.0408 12.0659C12.174 11.944 12.3627 11.8716 12.6076 11.8491C12.9409 11.8273 13.2795 11.8158 13.6244 11.8158C13.9688 11.8158 14.3078 11.8158 14.6413 11.8158C14.8857 11.8158 15.1466 11.8215 15.4247 11.8324C15.7023 11.8439 15.9748 11.8491 16.2415 11.8491C16.5968 11.8491 16.9135 11.9607 17.1917 12.1825C17.4693 12.4049 17.697 12.8159 17.8751 13.4159C17.9193 13.5942 18.0136 13.7717 18.1584 13.9493C18.3027 14.1275 18.4636 14.2161 18.6417 14.2161C18.7751 14.2161 18.8694 14.1493 18.9251 14.0161C18.9802 13.8828 18.9969 13.6941 18.9751 13.4492C18.9303 12.9383 18.897 12.5273 18.875 12.2158C18.8526 11.9049 18.8417 11.549 18.8417 11.149C18.8417 10.8381 18.8585 10.499 18.8918 10.1322C18.9251 9.76543 18.9636 9.37131 19.0085 8.9488C19.0304 8.72678 18.9917 8.5602 18.8918 8.44874C18.7918 8.33774 18.686 8.28201 18.575 8.28201C18.4634 8.28201 18.3469 8.33759 18.225 8.44874C18.1025 8.5602 17.9969 8.69347 17.9083 8.84869C17.73 9.29361 17.4914 9.6713 17.1916 9.98221C16.8914 10.2937 16.4747 10.4489 15.9414 10.4489C15.4746 10.4489 14.9354 10.4604 14.3245 10.4823C13.713 10.5047 13.1078 10.5156 12.5077 10.5156C12.2853 10.5156 12.1243 10.4436 12.0243 10.2988C11.9244 10.1545 11.8743 9.97115 11.8743 9.74869C11.8743 9.28196 11.8743 8.7601 11.8743 8.18191C11.8743 7.60432 11.8743 7.0599 11.8743 6.54835C11.8743 6.0598 11.8743 5.53734 11.8743 4.98156C11.8743 4.42638 11.8743 3.94815 11.8743 3.5482C11.8743 3.08146 12.0019 2.69795 12.2577 2.39795C12.5129 2.09795 12.9078 1.94795 13.4411 1.94795H16.4749C16.9858 1.94795 17.4358 2.01458 17.825 2.148C18.2136 2.28126 18.5528 2.51463 18.8419 2.8481C19.0861 3.07041 19.292 3.37623 19.4588 3.76483C19.6255 4.15402 19.7755 4.59312 19.9088 5.08166C19.9531 5.23734 20.0363 5.3597 20.1589 5.44844C20.2808 5.53749 20.3973 5.58171 20.5089 5.58171C20.7533 5.58171 20.8754 5.3597 20.8754 4.91493C20.8751 4.62688 20.8697 4.23784 20.8587 3.74855Z" fill="#425871"/>
<path d="M2.26781 12.1399L1.54785 11.4199L0.827898 12.1399L1.54785 12.8598L2.26781 12.1399Z" fill="#425871"/>
</svg>
