<svg width="77" height="77" viewBox="0 0 77 77" fill="none" xmlns="http://www.w3.org/2000/svg">
<path d="M19.5143 44.7585C19.5093 44.6408 19.5019 44.5353 19.4922 44.4421C19.4872 44.3979 19.4663 44.3672 19.4296 44.3499C19.3928 44.3329 19.3598 44.3242 19.3302 44.3242C19.2273 44.3242 19.1009 44.3378 18.9513 44.3647C18.8015 44.3917 18.6336 44.4052 18.4472 44.4052C18.2608 44.4052 18.0633 44.4052 17.8549 44.4052C17.6461 44.4052 17.4536 44.4052 17.2771 44.4052C17.1495 44.4052 17.0243 44.4028 16.902 44.3979C16.7792 44.3929 16.654 44.3882 16.5265 44.3831C16.3988 44.3782 16.2664 44.3756 16.129 44.3756C16.075 44.3756 16.0322 44.3843 16.0002 44.4013C15.9684 44.4186 15.9524 44.4443 15.9524 44.4787C15.9524 44.508 15.9672 44.5364 15.9966 44.5633C16.0259 44.5903 16.075 44.6111 16.1438 44.6259C16.3202 44.6652 16.4391 44.7288 16.5005 44.8172C16.5618 44.9055 16.5927 45.043 16.5927 45.2293V48.4671C16.5927 48.6291 16.557 48.7444 16.486 48.8132C16.4148 48.8817 16.286 48.9357 16.0997 48.9748C15.977 48.9995 15.9158 49.0486 15.9158 49.1221C15.9158 49.1516 15.9328 49.1747 15.9673 49.1919C16.0017 49.2091 16.041 49.2177 16.085 49.2177C16.2026 49.2177 16.3192 49.2128 16.4346 49.2031C16.5498 49.1932 16.664 49.1861 16.7768 49.1808C16.8896 49.1761 17 49.1735 17.1079 49.1735C17.2011 49.1735 17.3028 49.1761 17.4132 49.1808C17.5235 49.1859 17.6388 49.1919 17.7591 49.1992C17.8792 49.2067 17.9956 49.2103 18.1087 49.2103C18.1626 49.2103 18.203 49.2031 18.2302 49.1883C18.2571 49.1735 18.2707 49.1492 18.2707 49.1148C18.2707 49.0755 18.2559 49.0449 18.2266 49.0228C18.197 49.0005 18.1502 48.9847 18.0866 48.9748C17.8903 48.9309 17.753 48.8719 17.6745 48.7982C17.5959 48.7247 17.5543 48.6119 17.5493 48.4598C17.5446 48.2244 17.5408 47.9889 17.5383 47.7533C17.5359 47.5178 17.5345 47.2873 17.5345 47.0614C17.5345 47.0027 17.5493 46.9598 17.5788 46.9326C17.6082 46.9057 17.6499 46.8898 17.704 46.8848C17.7775 46.8799 17.8523 46.8774 17.9284 46.8774C18.0043 46.8774 18.0791 46.8774 18.1528 46.8774C18.2067 46.8774 18.2642 46.8787 18.3258 46.8811C18.3869 46.8836 18.4472 46.8848 18.506 46.8848C18.5844 46.8848 18.6543 46.9093 18.7159 46.9583C18.777 47.0075 18.8273 47.0983 18.8666 47.2307C18.8763 47.27 18.8972 47.3093 18.9292 47.3484C18.9612 47.3877 18.9966 47.4074 19.0359 47.4074C19.0653 47.4074 19.0862 47.3926 19.0985 47.3632C19.1104 47.3338 19.1143 47.2921 19.1095 47.238C19.0995 47.1252 19.0922 47.0344 19.0876 46.9658C19.0825 46.8971 19.0801 46.8186 19.0801 46.7303C19.0801 46.6616 19.0837 46.5868 19.0912 46.5058C19.0986 46.4248 19.107 46.338 19.1169 46.2446C19.1218 46.1958 19.1131 46.159 19.0912 46.1342C19.0692 46.1097 19.0458 46.0975 19.0212 46.0975C18.9967 46.0975 18.9709 46.1099 18.944 46.1342C18.917 46.159 18.8935 46.1883 18.8741 46.2227C18.8348 46.321 18.7821 46.4042 18.716 46.4729C18.6495 46.5416 18.5577 46.5759 18.4399 46.5759C18.337 46.5759 18.2181 46.5784 18.083 46.5833C17.9479 46.5883 17.8144 46.5907 17.682 46.5907C17.6327 46.5907 17.5973 46.5748 17.5753 46.5428C17.5531 46.511 17.5422 46.4705 17.5422 46.4214C17.5422 46.3184 17.5422 46.2033 17.5422 46.0755C17.5422 45.9481 17.5422 45.8277 17.5422 45.7149C17.5422 45.607 17.5422 45.4917 17.5422 45.369C17.5422 45.2463 17.5422 45.141 17.5422 45.0526C17.5422 44.9496 17.5703 44.8649 17.6269 44.7987C17.6831 44.7327 17.7703 44.6994 17.888 44.6994H18.5577C18.6706 44.6994 18.77 44.7142 18.8557 44.7436C18.9416 44.7729 19.0163 44.8246 19.0801 44.8981C19.134 44.9471 19.1795 45.0148 19.2162 45.1004C19.253 45.1864 19.286 45.2832 19.3156 45.391C19.3253 45.4255 19.3438 45.4525 19.3707 45.4719C19.3976 45.4916 19.4233 45.5014 19.4479 45.5014C19.5019 45.5014 19.5289 45.4525 19.5289 45.3542C19.5289 45.2906 19.5276 45.2046 19.5252 45.0968C19.5228 44.9891 19.5191 44.8761 19.5143 44.7585Z" fill="#425871"/>
<path d="M28.9997 47.8652C28.9703 47.8652 28.9409 47.8849 28.9116 47.9239C28.882 47.9635 28.85 48.0197 28.8158 48.0933C28.7617 48.2111 28.7054 48.314 28.6467 48.4023C28.5877 48.4907 28.5142 48.5741 28.4257 48.6527C28.367 48.7114 28.291 48.7607 28.1976 48.7997C28.1044 48.839 28.0013 48.8586 27.8886 48.8586H27.0863C26.9099 48.8586 26.7896 48.8256 26.726 48.7594C26.6622 48.6929 26.6302 48.5888 26.6302 48.4465V45.0835C26.6302 44.9412 26.6755 44.8417 26.7663 44.7854C26.857 44.7292 26.9982 44.6764 27.1896 44.6272C27.2483 44.6124 27.2937 44.594 27.3257 44.5721C27.3575 44.5498 27.3735 44.5195 27.3735 44.48C27.3735 44.4457 27.3588 44.42 27.3293 44.4026C27.2998 44.3855 27.2605 44.377 27.2115 44.377C27.0986 44.377 26.9822 44.3795 26.8619 44.3844C26.7418 44.3894 26.6239 44.3943 26.5087 44.3992C26.3934 44.4041 26.2794 44.4065 26.1666 44.4065C26.0637 44.4065 25.9604 44.4041 25.8575 44.3992C25.7546 44.3943 25.6477 44.3895 25.5373 44.3844C25.4271 44.3795 25.3104 44.377 25.1877 44.377C25.1435 44.377 25.1042 44.3856 25.0699 44.4026C25.0355 44.42 25.0183 44.4433 25.0183 44.4726C25.0183 44.551 25.0821 44.6027 25.2098 44.6271C25.3373 44.6516 25.4342 44.6799 25.5004 44.7116C25.5666 44.7437 25.6132 44.7889 25.6401 44.8477C25.667 44.9066 25.6808 44.9925 25.6808 45.1054V48.4905C25.6808 48.6425 25.6389 48.7518 25.5556 48.8179C25.472 48.8841 25.3421 48.9394 25.1656 48.9835C25.1311 48.9935 25.0966 49.0093 25.0624 49.0314C25.028 49.0534 25.011 49.084 25.011 49.1235C25.011 49.148 25.0256 49.1713 25.0552 49.1932C25.0846 49.2155 25.1263 49.2264 25.1801 49.2264C25.2339 49.2264 25.3223 49.2228 25.4453 49.2153C25.5677 49.208 25.6991 49.2018 25.839 49.197C25.9787 49.1919 26.1025 49.1895 26.2105 49.1895C26.4167 49.1895 26.6362 49.1919 26.8693 49.197C27.102 49.2018 27.3339 49.2055 27.5646 49.208C27.7951 49.2104 28.0135 49.2142 28.2194 49.2191C28.4256 49.2239 28.6023 49.2264 28.7495 49.2264C28.7937 49.2264 28.823 49.2128 28.8378 49.1859C28.8524 49.1589 28.8623 49.1282 28.8672 49.0939C28.8817 48.9811 28.8977 48.877 28.915 48.7812C28.9322 48.6854 28.9543 48.5861 28.9812 48.4831C29.0082 48.3802 29.0413 48.2575 29.0806 48.1153C29.0806 48.1005 29.083 48.0811 29.0879 48.0563C29.0928 48.0318 29.0954 48.0171 29.0954 48.0122C29.0954 47.9778 29.0879 47.9448 29.0734 47.9129C29.0586 47.8812 29.0339 47.8652 28.9997 47.8652Z" fill="#425871"/>
<path d="M38.8898 44.9688C38.6542 44.7553 38.3857 44.5911 38.0839 44.4756C37.7823 44.3603 37.4647 44.3027 37.1311 44.3027C36.7091 44.3027 36.3374 44.374 36.0162 44.5162C35.6949 44.6585 35.4252 44.8497 35.2069 45.0901C34.9886 45.3305 34.8243 45.604 34.7139 45.9108C34.6036 46.2173 34.5483 46.5373 34.5483 46.871C34.5483 47.234 34.6156 47.564 34.7506 47.8609C34.8855 48.1576 35.0695 48.4126 35.3027 48.6261C35.5356 48.8393 35.8041 49.0038 36.1084 49.119C36.4124 49.2342 36.7314 49.292 37.0649 49.292C37.4868 49.292 37.8585 49.2209 38.1797 49.0787C38.5011 48.9365 38.7708 48.7452 38.9892 48.5048C39.2076 48.2644 39.3719 47.9897 39.4824 47.6806C39.5928 47.3715 39.6479 47.0526 39.6479 46.7238C39.6479 46.3609 39.5805 46.031 39.4458 45.734C39.3107 45.4371 39.1254 45.182 38.8898 44.9688ZM38.4373 48.0741C38.3318 48.3563 38.1749 48.5758 37.9662 48.7328C37.7578 48.8898 37.499 48.9683 37.1899 48.9683C36.9152 48.9683 36.6784 48.8995 36.4798 48.7621C36.2811 48.6249 36.1166 48.4382 35.9866 48.2027C35.8565 47.9673 35.7595 47.7024 35.6961 47.4082C35.6323 47.1137 35.6004 46.8097 35.6004 46.4955C35.6004 46.1275 35.6518 45.8039 35.7551 45.5242C35.858 45.2446 36.0137 45.0263 36.2222 44.8693C36.4307 44.7122 36.6896 44.6338 36.9987 44.6338C37.2733 44.6338 37.5101 44.7025 37.7088 44.8397C37.9075 44.9771 38.073 45.1624 38.2056 45.3955C38.3378 45.6284 38.4359 45.8921 38.4997 46.1866C38.5635 46.4807 38.5955 46.7852 38.5955 47.0991C38.5955 47.4669 38.5428 47.792 38.4373 48.0741Z" fill="#425871"/>
<path d="M50.4504 48.8443C50.2787 48.8443 50.1132 48.8307 49.9539 48.8038C49.7942 48.7769 49.6385 48.6923 49.4866 48.5499C49.3049 48.3834 49.137 48.2092 48.9825 48.0276C48.8279 47.8463 48.6806 47.6534 48.5409 47.4499C48.4012 47.2464 48.2576 47.0317 48.1104 46.806L48.0847 46.7544L48.1104 46.7175C48.2577 46.6636 48.4012 46.5878 48.5409 46.4895C48.6806 46.3915 48.7969 46.2651 48.8905 46.1105C48.9835 45.956 49.0302 45.7685 49.0302 45.5476C49.0302 45.1454 48.8805 44.8461 48.5812 44.6498C48.2819 44.4535 47.8502 44.3555 47.2862 44.3555C47.1242 44.3555 46.9916 44.3604 46.8888 44.3703C46.7857 44.38 46.6925 44.39 46.6091 44.3997C46.5256 44.4096 46.4301 44.4142 46.3221 44.4142C46.209 44.4142 46.1122 44.4106 46.0314 44.4031C45.9505 44.3958 45.8658 44.3898 45.7775 44.3848C45.6894 44.3798 45.5716 44.3773 45.4243 44.3773C45.3704 44.3773 45.3275 44.3859 45.2955 44.403C45.2637 44.4203 45.2477 44.446 45.2477 44.4804C45.2477 44.5097 45.2627 44.5391 45.292 44.5685C45.3212 44.5981 45.3704 44.6177 45.439 44.6274C45.5664 44.6471 45.6622 44.6765 45.7261 44.7158C45.7896 44.7551 45.8328 44.8126 45.8548 44.8887C45.8767 44.9647 45.8881 45.0738 45.8881 45.2162V48.4687C45.8881 48.6306 45.8485 48.746 45.7703 48.8147C45.6918 48.8833 45.5591 48.9372 45.3729 48.9763C45.2501 49.001 45.1887 49.0501 45.1887 49.1236C45.1887 49.1531 45.2059 49.1762 45.2403 49.1934C45.2745 49.2106 45.3138 49.2193 45.358 49.2193C45.4757 49.2193 45.5935 49.2143 45.7112 49.2046C45.8289 49.1948 45.9456 49.1876 46.0608 49.1824C46.1761 49.1776 46.2876 49.175 46.3956 49.175C46.4936 49.175 46.5979 49.1776 46.7083 49.1824C46.8187 49.1874 46.9328 49.1934 47.0506 49.2007C47.1683 49.2082 47.2836 49.2118 47.3964 49.2118C47.4502 49.2118 47.4906 49.2046 47.5178 49.1898C47.5446 49.175 47.5584 49.1507 47.5584 49.1163C47.5584 49.077 47.5435 49.0464 47.5142 49.0243C47.4846 49.002 47.438 48.9862 47.3742 48.9763C47.178 48.9324 47.0392 48.8685 46.9585 48.785C46.8774 48.7016 46.8371 48.5839 46.8371 48.4318V47.0629C46.8371 47.019 46.8444 46.9823 46.8593 46.9527C46.8738 46.9232 46.8959 46.911 46.9254 46.9158C46.9696 46.9158 47.0249 46.9232 47.0911 46.938C47.1571 46.9527 47.2224 46.9773 47.286 47.0117C47.384 47.0658 47.465 47.1491 47.5287 47.2616C47.6564 47.4973 47.7729 47.6997 47.8783 47.8687C47.9837 48.0381 48.088 48.1926 48.191 48.3323C48.2941 48.4723 48.3995 48.6157 48.5075 48.7628C48.6006 48.8806 48.7037 48.9835 48.8165 49.072C48.9293 49.1602 49.0642 49.2276 49.2212 49.2742C49.3783 49.321 49.5622 49.3442 49.7733 49.3442C49.9106 49.3442 50.0394 49.3319 50.1596 49.3074C50.2796 49.2829 50.3767 49.2423 50.4502 49.1859C50.5237 49.1295 50.5606 49.0524 50.5606 48.9542C50.5608 48.881 50.5239 48.8443 50.4504 48.8443ZM47.9669 46.2025C47.8957 46.3545 47.7927 46.4761 47.6579 46.5668C47.5228 46.6575 47.3546 46.7029 47.1537 46.7029C47.0555 46.7029 46.9781 46.6845 46.9219 46.6478C46.8653 46.611 46.8374 46.5384 46.8374 46.4307C46.8374 46.1755 46.8374 45.956 46.8374 45.7721C46.8374 45.5882 46.8398 45.4398 46.8447 45.3269C46.8496 45.0523 46.8753 44.8694 46.9219 44.7787C46.9686 44.6879 47.0555 44.6426 47.1831 44.6426C47.4085 44.6426 47.5865 44.6855 47.7165 44.7714C47.8466 44.8573 47.9386 44.9773 47.9926 45.1318C48.0465 45.2865 48.0737 45.4739 48.0737 45.6949C48.0738 45.8812 48.038 46.0504 47.9669 46.2025Z" fill="#425871"/>
<path d="M61.0322 49.0202C60.998 48.9957 60.9489 48.9759 60.8852 48.9613C60.7871 48.9368 60.6977 48.9036 60.6166 48.8619C60.5358 48.8203 60.4623 48.7602 60.3958 48.6816C60.3293 48.6032 60.2743 48.4977 60.2302 48.3652C60.1418 48.1003 60.0448 47.8096 59.9395 47.4931C59.834 47.1767 59.725 46.8456 59.612 46.4996C59.4992 46.1537 59.3848 45.8029 59.2699 45.4472C59.1544 45.0916 59.0428 44.7396 58.9346 44.3912C58.9251 44.357 58.9153 44.325 58.9055 44.2955C58.8953 44.2662 58.8835 44.2367 58.8686 44.2073C58.8539 44.1828 58.839 44.1718 58.8244 44.1741L58.7804 44.1925C58.7558 44.222 58.7192 44.2638 58.67 44.3177C58.6209 44.3718 58.5619 44.4157 58.4931 44.4499C58.4145 44.4795 58.3434 44.5042 58.2796 44.5237C58.2158 44.5435 58.1473 44.563 58.0738 44.5826C58.0591 44.6219 58.0418 44.6833 58.0222 44.7665C58.0026 44.8499 57.966 44.9676 57.9118 45.1197C57.8041 45.424 57.6973 45.7134 57.5916 45.9882C57.4863 46.2629 57.3819 46.5326 57.2789 46.7975C57.1758 47.0624 57.068 47.3288 56.955 47.5959C56.8422 47.8635 56.7247 48.1417 56.602 48.4311C56.538 48.5734 56.4533 48.6849 56.3482 48.7659C56.2424 48.8469 56.1187 48.9071 55.9763 48.9462C55.9174 48.9659 55.8696 48.988 55.8327 49.0127C55.7958 49.0372 55.7776 49.0714 55.7776 49.1156C55.7776 49.1549 55.7973 49.183 55.8366 49.2002C55.8754 49.2172 55.9246 49.2259 55.9836 49.2259C56.1258 49.2259 56.2669 49.2186 56.4067 49.2039C56.5464 49.1891 56.6901 49.1817 56.8372 49.1817C56.9842 49.1817 57.1191 49.1854 57.2417 49.1927C57.3644 49.2002 57.4821 49.2039 57.5952 49.2039C57.6541 49.2039 57.6992 49.1953 57.7312 49.1782C57.763 49.161 57.7791 49.1377 57.7791 49.1083C57.7791 49.0396 57.7129 48.9882 57.5806 48.9538C57.4037 48.9096 57.2798 48.8495 57.2087 48.7735C57.1376 48.6976 57.1143 48.5932 57.1388 48.4608C57.149 48.4069 57.1648 48.3431 57.1868 48.2696C57.2087 48.1958 57.2332 48.1163 57.2603 48.0302C57.2873 47.9445 57.3145 47.8612 57.3415 47.7803C57.3681 47.6993 57.3916 47.627 57.411 47.5632C57.421 47.519 57.4355 47.4858 57.4554 47.4638C57.4747 47.4417 57.5018 47.4307 57.5361 47.4307H58.8607C58.9149 47.4307 58.9515 47.4393 58.9711 47.4564C58.9908 47.4737 59.0053 47.5018 59.0154 47.5409C59.0497 47.6442 59.0828 47.758 59.1145 47.8832C59.1468 48.0083 59.1774 48.1285 59.2065 48.2439C59.2361 48.3591 59.2581 48.4584 59.273 48.5419C59.2923 48.6597 59.2633 48.749 59.1846 48.8104C59.106 48.872 58.9787 48.9172 58.8021 48.9465C58.7479 48.9564 58.7014 48.9749 58.6621 49.0016C58.6228 49.0287 58.6032 49.0618 58.6032 49.101C58.6032 49.1355 58.6216 49.1613 58.6584 49.1784C58.6953 49.1954 58.7381 49.2041 58.7872 49.2041C58.8705 49.2041 58.9724 49.2015 59.0925 49.1968C59.2127 49.1917 59.3331 49.187 59.4533 49.1818C59.5733 49.177 59.6825 49.1745 59.7808 49.1745C59.8936 49.1745 60.0209 49.1782 60.1633 49.1856C60.3057 49.1927 60.4443 49.199 60.5791 49.2039C60.7138 49.2086 60.8256 49.2111 60.914 49.2111C60.9628 49.2111 61.0035 49.2039 61.0354 49.1891C61.0673 49.1743 61.0833 49.1524 61.0833 49.1229C61.0839 49.079 61.0666 49.0448 61.0322 49.0202ZM58.7585 47.0921H57.7355C57.6962 47.0921 57.6629 47.0873 57.6362 47.0773C57.6093 47.0676 57.5957 47.0504 57.5957 47.0258C57.5957 47.0113 57.6006 46.9916 57.6102 46.9671L58.2284 45.2599C58.2529 45.1961 58.2702 45.1641 58.2799 45.1641C58.2949 45.1641 58.3122 45.1984 58.3315 45.2672L58.8468 46.9671L58.8577 47.0113L58.8613 47.048C58.8613 47.0773 58.827 47.0921 58.7585 47.0921Z" fill="#425871"/>
<path d="M38.6768 0.823223L38.5 0.646447L38.3232 0.823223L0.823223 38.3232L0.646447 38.5L0.823223 38.6768L38.3232 76.1768L38.5 76.3536L38.6768 76.1768L76.1768 38.6768L76.3536 38.5L76.1768 38.3232L38.6768 0.823223ZM1.87213 38.5L38.5 1.87213L75.1279 38.5L38.5 75.1279L1.87213 38.5Z" fill="#425871" stroke="#425871" stroke-width="0.5"/>
<path d="M38.0157 30.8223H28.8049V31.4556H38.0157V30.8223Z" fill="#425871"/>
<path d="M36.2204 27.5H31.8777V28.1333H36.2204V27.5Z" fill="#425871"/>
<path d="M32.3916 27.8157L31.6716 27.0957L30.9517 27.8157L31.6716 28.5356L32.3916 27.8157Z" fill="#425871"/>
<path d="M36.2204 23.541H31.8777V24.1743H36.2204V23.541Z" fill="#425871"/>
<path d="M36.2204 34.1387H31.8777V34.772H36.2204V34.1387Z" fill="#425871"/>
<path d="M32.3916 34.4543L31.6716 33.7344L30.9517 34.4543L31.6716 35.1743L32.3916 34.4543Z" fill="#425871"/>
<path d="M36.2204 37.4629H31.8777V38.0962H36.2204V37.4629Z" fill="#425871"/>
<path d="M47.8585 22.7485C47.847 22.26 47.8301 21.7484 47.8088 21.2151C47.7864 20.6817 47.7531 20.2041 47.7087 19.7816C47.6863 19.5815 47.5917 19.443 47.4254 19.3649C47.2587 19.2872 47.1085 19.248 46.9751 19.248C46.5084 19.248 45.936 19.3096 45.2583 19.4314C44.58 19.5539 43.8191 19.6147 42.9747 19.6147C42.1297 19.6147 41.2354 19.6147 40.291 19.6147C39.346 19.6147 38.4741 19.6147 37.6741 19.6147C37.0959 19.6147 36.5291 19.6038 35.9737 19.5814C35.4181 19.5596 34.8513 19.5371 34.2735 19.5147C33.6953 19.4928 33.0953 19.4814 32.4732 19.4814C32.2285 19.4814 32.0341 19.5206 31.89 19.5981C31.745 19.6762 31.6732 19.7929 31.6732 19.9481C31.6732 20.0816 31.74 20.2096 31.8732 20.3315C32.0065 20.454 32.2285 20.5483 32.54 20.6149C33.3401 20.793 33.8787 21.0817 34.1568 21.4818C34.4344 21.8817 34.5735 22.5043 34.5735 23.3485V24.1756H36.2204V24.809H34.5735V28.1336H36.2204V28.7669H34.5735V31.4562H38.0158V32.0895H34.5735V34.7716H36.2204V35.4049H34.5735V38.017C34.5735 38.0444 34.5717 38.0693 34.5713 38.0961H36.2204V38.7294H34.5094C34.4349 39.0999 34.2956 39.3854 34.0902 39.5838C33.7678 39.8953 33.1844 40.1396 32.34 40.3171C31.7842 40.4287 31.5066 40.6505 31.5066 40.9839C31.5066 41.1171 31.5841 41.2229 31.74 41.3006C31.895 41.3781 32.0733 41.4173 32.2732 41.4173C32.8065 41.4173 33.3342 41.3949 33.8567 41.3506C34.3787 41.3058 34.8953 41.2729 35.407 41.2505C35.918 41.2286 36.418 41.2172 36.9072 41.2172C37.3292 41.2172 37.7906 41.2287 38.2907 41.2505C38.7907 41.2729 39.3126 41.3006 39.8574 41.3339C40.4019 41.3672 40.9295 41.3838 41.441 41.3838C41.6854 41.3838 41.8687 41.3505 41.9911 41.2839C42.113 41.2171 42.1744 41.1062 42.1744 40.9505C42.1744 40.7729 42.1077 40.6338 41.9743 40.5337C41.8411 40.4338 41.6295 40.3617 41.341 40.3169C40.4518 40.117 39.8293 39.8502 39.4742 39.5169C39.1183 39.1836 38.9292 38.6724 38.9074 37.9834C38.885 36.9167 38.8682 35.8498 38.8573 34.7831C38.8458 33.7162 38.8406 32.6719 38.8406 31.6493C38.8406 31.3825 38.9074 31.1883 39.0407 31.0659C39.1739 30.944 39.3626 30.8716 39.6075 30.8491C39.9408 30.8273 40.2793 30.8158 40.6243 30.8158C40.9687 30.8158 41.3077 30.8158 41.6412 30.8158C41.8856 30.8158 42.1464 30.8215 42.4246 30.8324C42.7022 30.8439 42.9747 30.8491 43.2414 30.8491C43.5967 30.8491 43.9134 30.9607 44.1916 31.1825C44.4692 31.4049 44.6969 31.8159 44.875 32.4159C44.9192 32.5942 45.0135 32.7717 45.1582 32.9493C45.3026 33.1275 45.4635 33.2161 45.6415 33.2161C45.775 33.2161 45.8692 33.1493 45.925 33.0161C45.9801 32.8828 45.9968 32.6941 45.975 32.4492C45.9302 31.9383 45.8969 31.5273 45.8749 31.2158C45.8525 30.9049 45.8416 30.549 45.8416 30.149C45.8416 29.8381 45.8583 29.499 45.8917 29.1322C45.925 28.7654 45.9635 28.3713 46.0083 27.9488C46.0303 27.7268 45.9916 27.5602 45.8917 27.4487C45.7917 27.3377 45.6859 27.282 45.5749 27.282C45.4633 27.282 45.3468 27.3376 45.2249 27.4487C45.1024 27.5602 44.9967 27.6935 44.9081 27.8487C44.7299 28.2936 44.4913 28.6713 44.1915 28.9822C43.8913 29.2937 43.4746 29.4489 42.9412 29.4489C42.4745 29.4489 41.9353 29.4604 41.3244 29.4823C40.7129 29.5047 40.1077 29.5156 39.5075 29.5156C39.2852 29.5156 39.1242 29.4436 39.0242 29.2988C38.9243 29.1545 38.8742 28.9712 38.8742 28.7487C38.8742 28.282 38.8742 27.7601 38.8742 27.1819C38.8742 26.6043 38.8742 26.0599 38.8742 25.5483C38.8742 25.0598 38.8742 24.5373 38.8742 23.9816C38.8742 23.4264 38.8742 22.9481 38.8742 22.5482C38.8742 22.0815 39.0018 21.6979 39.2576 21.3979C39.5128 21.0979 39.9076 20.9479 40.441 20.9479H43.4748C43.9857 20.9479 44.4357 21.0146 44.8249 21.148C45.2135 21.2813 45.5527 21.5146 45.8417 21.8481C46.086 22.0704 46.2919 22.3762 46.4586 22.7648C46.6254 23.154 46.7754 23.5931 46.9086 24.0817C46.953 24.2373 47.0362 24.3597 47.1587 24.4484C47.2806 24.5375 47.3972 24.5817 47.5088 24.5817C47.7532 24.5817 47.8753 24.3597 47.8753 23.9149C47.875 23.6269 47.8696 23.2378 47.8585 22.7485Z" fill="#425871"/>
<path d="M29.2678 31.1399L28.5479 30.4199L27.8279 31.1399L28.5479 31.8598L29.2678 31.1399Z" fill="#425871"/>
</svg>
